<svg id="Layer_1" data-name="Layer 1" xmlns="http://www.w3.org/2000/svg" viewBox="0 0 235.81 163.86"><defs><style>.cls-1{fill:#3fa9f5;}.cls-2{fill:#a6ddff;}.cls-3{fill:#fff;}.cls-4{fill:#2e3192;}</style></defs><title>Artboard 3</title><path class="cls-1" d="M193.56,132.75a2.64,2.64,0,0,1,2.58,3.05,21.22,21.22,0,0,1-21,18.17h0a21.21,21.21,0,0,1-21-18.34,2.58,2.58,0,0,1,2.6-2.88Z"/><path class="cls-1" d="M229.72,9.08H204.51a12.25,12.25,0,0,0-10.18,5.45,12.22,12.22,0,0,0-10.17-5.45H159a2.54,2.54,0,0,0-2.55,2.83A20.88,20.88,0,0,0,177.11,30h0a20.7,20.7,0,0,0,11.22-3.32c-2.6,6.1-5.94,13.32-8.52,16.93-9.07,12.7-24.87,10.89-24.87,10.89H19.39A13.82,13.82,0,0,0,5.57,68.28h0a91.87,91.87,0,0,0,91.87,91.86h17.73a83.37,83.37,0,0,0,36-8c31.52-15,52.28-49,52.28-86.74,0-15.31-.59-27.63-2-38.1A20.72,20.72,0,0,0,211.6,30h0a20.87,20.87,0,0,0,20.65-17.88A2.59,2.59,0,0,0,229.72,9.08Z"/><path class="cls-2" d="M96.79,96.4C90.52,79.33,79.07,74,69.23,72.61a36.62,36.62,0,0,0-17.7,1.51c-5.9,2.12-15.13,7.56-25.86,7.56-17,0-20-9.07-20-9.07h0c2.48,51.83,43.56,87.12,91.87,87.53H115.3a83.4,83.4,0,0,0,36-8C130.25,155.85,111.13,135.36,96.79,96.4Z"/><path class="cls-3" d="M25.67,81.68c10.73,0,20-5.44,25.86-7.56A33.47,33.47,0,0,1,62,72.2v0L5.7,72.61S8.7,81.68,25.67,81.68Z"/><path class="cls-4" d="M131.72,111a2.72,2.72,0,0,1-2.72-2.72,4.09,4.09,0,1,0-8.17,0,2.73,2.73,0,0,1-5.45,0,9.53,9.53,0,0,1,19.06,0A2.72,2.72,0,0,1,131.72,111Z"/></svg>