<svg id="Layer_1" data-name="Layer 1" xmlns="http://www.w3.org/2000/svg" viewBox="0 0 1136.57 44.72"><defs><style>.cls-1{fill:#b8dff6;}</style></defs><title>Artboard 5 copy</title><path class="cls-1" d="M393.41,0c0,.14,0,.27,0,.41,0-.14,0-.27,0-.41Z"/><path class="cls-1" d="M306,0c0,.14,0,.27,0,.41,0-.14,0-.27,0-.41Z"/><path class="cls-1" d="M480.84,0c0,.14,0,.27,0,.41,0-.14,0-.27,0-.41Z"/><path class="cls-1" d="M43.7,0c0,.14,0,.27,0,.41,0-.14,0-.27,0-.41Z"/><path class="cls-1" d="M131.12,0c0,.14,0,.27,0,.41,0-.14,0-.27,0-.41Z"/><path class="cls-1" d="M568.27,0c0,.14,0,.27,0,.41,0-.14,0-.27,0-.41Z"/><path class="cls-1" d="M218.55,0c0,.14,0,.27,0,.41,0-.14,0-.27,0-.41Z"/><path class="cls-1" d="M1092.84,0c0,.14,0,.27,0,.41,0-.14,0-.27,0-.41Z"/><path class="cls-1" d="M655.7,0c0,.14,0,.27,0,.41,0-.14,0-.27,0-.41Z"/><path class="cls-1" d="M1005.41,0c0,.14,0,.27,0,.41,0-.14,0-.27,0-.41Z"/><path class="cls-1" d="M1136.57,25.67h-.76c-18.58-.18-34.34-7.07-40.35-16.65a3.07,3.07,0,0,0-5.21,0c-6.09,9.71-22.2,16.65-41.11,16.65S1014.12,18.73,1008,9a3.07,3.07,0,0,0-5.21,0c-6.09,9.71-22.19,16.65-41.11,16.65S926.7,18.73,920.6,9a3.06,3.06,0,0,0-5.2,0c-6.1,9.71-22.2,16.65-41.11,16.65s-35-6.94-41.11-16.65A3.07,3.07,0,0,0,828,9c-6.09,9.71-22.2,16.65-41.11,16.65s-35-6.94-41.11-16.65a3.07,3.07,0,0,0-5.21,0c-6.09,9.71-22.2,16.65-41.11,16.65s-35-6.94-41.11-16.65a3.07,3.07,0,0,0-5.21,0C647,18.73,630.91,25.67,612,25.67S577,18.73,570.89,9a3.07,3.07,0,0,0-5.21,0c-6.09,9.71-22.2,16.65-41.11,16.65s-35-6.94-41.11-16.65a3.07,3.07,0,0,0-5.21,0c-6.09,9.71-22.2,16.65-41.11,16.65S402.12,18.73,396,9a3.07,3.07,0,0,0-5.21,0c-6.09,9.71-22.19,16.65-41.11,16.65S314.7,18.73,308.6,9a3.06,3.06,0,0,0-5.2,0c-6.1,9.71-22.2,16.65-41.11,16.65s-35-6.94-41.11-16.65A3.07,3.07,0,0,0,216,9c-6.09,9.71-22.2,16.65-41.11,16.65s-35-6.94-41.11-16.65a3.07,3.07,0,0,0-5.21,0c-6.09,9.71-22.2,16.65-41.11,16.65S52.41,18.73,46.32,9a3.07,3.07,0,0,0-5.21,0C35.09,18.62,19.3,25.5.69,25.67H0v19H1136.57"/><path class="cls-1" d="M918,0c0,.14,0,.27,0,.41,0-.14,0-.27,0-.41Z"/><path class="cls-1" d="M743.12,0c0,.14,0,.27,0,.41,0-.14,0-.27,0-.41Z"/><path class="cls-1" d="M830.55,0c0,.14,0,.27,0,.41,0-.14,0-.27,0-.41Z"/></svg>